<svg width="847" height="320" viewBox="0 0 847 320" fill="none" xmlns="http://www.w3.org/2000/svg">
<g clip-path="url(#clip0_613_11)">
<path d="M198.761 255.855C199.582 251.856 199.486 247.724 198.479 243.768C195.085 230.555 188.562 218.352 179.461 208.19L172.571 198.117C172.24 197.618 172.102 197.015 172.183 196.421C172.265 195.827 172.561 195.284 173.015 194.893C174.385 193.765 175.795 192.597 177.044 191.388C178.293 190.179 180.59 188.084 182.362 186.392C182.606 186.15 182.796 185.861 182.921 185.542C183.046 185.222 183.103 184.881 183.088 184.538V183.208C151.781 205.248 122.166 208.633 94.2033 192.315C93.669 191.973 93.0207 191.857 92.4011 191.993C91.7815 192.129 91.2413 192.505 90.8993 193.04C90.5574 193.574 90.4417 194.222 90.5777 194.842C90.7137 195.462 91.0903 196.002 91.6246 196.344H91.8663C92.137 196.537 92.364 196.785 92.5329 197.071C92.7017 197.358 92.8086 197.677 92.8466 198.007C92.8846 198.337 92.8528 198.672 92.7533 198.989C92.6539 199.307 92.489 199.6 92.2692 199.849C89.4085 203.234 86.6284 206.618 83.6064 209.761C74.1378 219.673 64.8303 229.907 59.4312 242.599C58.5838 244.61 57.8967 246.685 57.3763 248.804V248.804C57.1899 249.534 57.042 250.274 56.9331 251.02V251.02C56.9331 251.705 56.9331 252.43 56.651 253.115C56.5096 254.562 56.5096 256.02 56.651 257.467V257.467C57.0959 261.253 58.589 264.839 60.9623 267.822C63.5177 271.356 66.8454 274.262 70.6924 276.317C74.5394 278.372 78.8043 279.523 83.1629 279.682C87.5216 279.842 91.8591 279.005 95.8459 277.236C99.8326 275.467 103.363 272.812 106.17 269.474C106.528 269.048 106.864 268.604 107.177 268.144C107.478 267.656 107.946 267.293 108.493 267.122C109.041 266.952 109.632 266.985 110.157 267.215C110.682 267.446 111.106 267.859 111.351 268.378C111.596 268.896 111.644 269.486 111.489 270.038C111.489 270.521 111.247 271.045 111.166 271.529C109.071 283.939 105.646 296.308 109.071 309C111.448 317.704 116.767 321.088 125.591 319.557C131.208 318.646 136.472 316.227 140.822 312.559C145.172 308.89 148.445 304.109 150.29 298.726C153.821 289.618 155.427 279.878 155.004 270.119C155.004 266.613 155.004 263.108 155.004 259.32C155.033 258.842 155.203 258.383 155.493 258.001C155.783 257.619 156.18 257.333 156.633 257.177C157.087 257.022 157.576 257.004 158.039 257.128C158.503 257.251 158.919 257.509 159.235 257.87C168.139 268.628 172.612 270.965 181.516 271.166H182C186.036 270.7 189.824 268.979 192.83 266.247C195.837 263.515 197.912 259.909 198.761 255.936V255.855Z" fill="#6B9B3B"/>
<path d="M52.138 250.013C34.4142 254.626 17.1818 260.955 0.684985 268.91C0.410022 269.031 0.192533 269.254 0.0777521 269.532C-0.0370292 269.81 -0.0402683 270.122 0.0687084 270.402C0.177685 270.682 0.390489 270.909 0.662863 271.037C0.935237 271.164 1.24621 271.182 1.53112 271.085C18.1001 265.99 34.925 261.767 51.9366 258.434C51.5818 255.632 51.6497 252.794 52.138 250.013V250.013Z" fill="#97C661"/>
<path d="M265.041 269.151C246.684 260.299 227.437 253.424 207.625 248.643L203.918 247.796C204.175 250.774 203.998 253.774 203.395 256.701L205.852 257.104C225.571 260.609 245.045 265.374 264.155 271.367C264.435 271.43 264.729 271.391 264.983 271.257C265.237 271.123 265.435 270.903 265.542 270.637C265.649 270.37 265.657 270.074 265.565 269.802C265.474 269.53 265.288 269.299 265.041 269.151V269.151Z" fill="#97C661"/>
<path d="M61.7678 126.799C61.8984 123.388 62.2078 119.985 62.6945 116.605C51.0242 127.648 43.8489 142.616 42.5484 158.63C41.3643 168.756 41.9643 179.011 44.3213 188.93C44.6033 189.884 45.1197 190.753 45.8235 191.457C46.5273 192.161 47.396 192.677 48.3505 192.959C49.3126 193.25 50.3336 193.288 51.3147 193.069C52.2958 192.851 53.2039 192.382 53.9511 191.71L75.3462 173.256C66.4824 161.127 61.6995 146.496 61.6872 131.473C61.6469 129.942 61.6872 128.492 61.7678 126.799Z" fill="#E88503"/>
<path d="M71.237 127.202C71.5491 120.827 72.4119 114.491 73.8156 108.265V108.265C72.4119 114.491 71.5491 120.827 71.237 127.202C71.237 128.532 71.237 129.902 71.237 131.232C71.227 141.217 73.6616 151.052 78.3284 159.879C73.6616 151.052 71.227 141.217 71.237 131.232C71.1564 129.902 71.1967 128.532 71.237 127.202Z" fill="#DD7003"/>
<path d="M222.734 158.63C221.434 142.616 214.259 127.648 202.588 116.605C203.075 119.985 203.384 123.388 203.515 126.799C203.515 128.532 203.515 129.942 203.515 131.232C203.519 146.344 198.707 161.065 189.775 173.256L211.009 191.992C211.763 192.668 212.678 193.138 213.666 193.357C214.654 193.576 215.682 193.536 216.65 193.241C217.603 192.956 218.47 192.438 219.173 191.735C219.877 191.032 220.394 190.165 220.679 189.212C223.164 179.219 223.86 168.865 222.734 158.63V158.63Z" fill="#E88503"/>
<path d="M193.886 127.202C193.591 120.826 192.728 114.488 191.307 108.265C187.621 92.8751 182.073 77.9917 174.787 63.9436C162.98 41.215 148.828 19.7838 132.561 0C132.561 0 85.6206 55.2405 73.8151 108.265C72.4113 114.491 71.5485 120.827 71.2364 127.202C71.2364 128.532 71.2364 129.902 71.2364 131.231C71.2264 141.216 73.661 151.052 78.3278 159.879C79.6032 162.252 81.0298 164.539 82.5987 166.729C85.3515 170.602 88.5423 174.144 92.1077 177.285C103.284 187.13 117.667 192.561 132.561 192.561C147.455 192.561 161.838 187.13 173.014 177.285C176.623 174.134 179.843 170.563 182.604 166.648C189.997 156.288 193.969 143.878 193.966 131.151C193.966 129.902 193.926 128.532 193.886 127.202ZM132.561 82.8809C128.843 82.8729 125.21 81.7636 122.122 79.693C119.034 77.6223 116.629 74.6832 115.209 71.2466C113.79 67.81 113.421 64.03 114.148 60.3837C114.876 56.7375 116.667 53.3884 119.296 50.7593C121.925 48.1302 125.274 46.3389 128.921 45.6116C132.567 44.8843 136.347 45.2535 139.783 46.6727C143.22 48.0919 146.159 50.4974 148.23 53.5855C150.3 56.6737 151.41 60.3061 151.418 64.0242C151.386 68.9969 149.382 73.7539 145.847 77.2513C142.312 80.7487 137.534 82.7009 132.561 82.6794V82.8809Z" fill="#FF9800"/>
<path d="M283.415 196.142C278.115 191.032 273.903 184.903 271.029 178.125C268.156 171.347 266.681 164.058 266.693 156.696V156.696C266.768 141.703 272.779 127.349 283.412 116.778C294.044 106.206 308.431 100.276 323.425 100.287C330.48 100.104 337.5 101.341 344.068 103.922C350.637 106.504 356.619 110.378 361.662 115.316C364.251 117.747 365.809 121.078 366.014 124.624C366.011 126.199 365.675 127.756 365.03 129.194C364.384 130.631 363.442 131.916 362.266 132.964C360.103 135.073 357.228 136.295 354.208 136.389C350.174 135.922 346.407 134.138 343.49 131.312C337.413 126.296 329.732 123.635 321.853 123.818C317.604 123.891 313.416 124.837 309.548 126.597C305.68 128.358 302.216 130.896 299.37 134.052C293.771 140.066 290.624 147.956 290.546 156.172V156.414C290.618 164.549 293.721 172.365 299.249 178.333C301.988 181.472 305.353 184.004 309.128 185.766C312.902 187.528 317.003 188.483 321.168 188.567C325.204 188.87 329.259 188.359 333.094 187.065C336.928 185.771 340.464 183.719 343.49 181.033C346.353 178.289 350.029 176.55 353.966 176.077C356.986 176.171 359.861 177.393 362.025 179.502C363.226 180.555 364.184 181.858 364.831 183.319C365.478 184.78 365.799 186.365 365.772 187.963C365.575 191.51 364.016 194.845 361.42 197.27C356.381 202.215 350.4 206.097 343.831 208.686C337.263 211.275 330.241 212.517 323.183 212.34C308.315 212.368 294.032 206.551 283.415 196.142V196.142Z" fill="#FF9800"/>
<path d="M392.646 195.9C384.819 188.046 379.491 178.05 377.335 167.173C375.18 156.296 376.292 145.023 380.531 134.777C384.771 124.531 391.949 115.769 401.161 109.595C410.372 103.422 421.205 100.113 432.294 100.086C439.609 100.02 446.865 101.411 453.637 104.178C460.409 106.945 466.563 111.033 471.74 116.203C482.256 126.629 488.211 140.799 488.3 155.608V198.963C488.294 202.112 487.083 205.139 484.915 207.424C483.803 208.57 482.468 209.476 480.991 210.086C479.515 210.696 477.93 210.997 476.333 210.97C473.422 210.966 470.622 209.857 468.498 207.868C466.374 205.878 465.084 203.156 464.89 200.252C455.791 208.001 444.245 212.283 432.294 212.34C424.928 212.343 417.635 210.893 410.831 208.072C404.028 205.251 397.848 201.115 392.646 195.9V195.9ZM455.502 179.179C461.521 173.034 464.893 164.774 464.893 156.172C464.893 147.57 461.521 139.311 455.502 133.166C452.446 130.141 448.823 127.751 444.84 126.133C440.857 124.515 436.593 123.701 432.294 123.737C423.659 123.737 415.379 127.167 409.273 133.273C403.168 139.378 399.738 147.659 399.738 156.293C399.738 164.928 403.168 173.208 409.273 179.314C415.379 185.419 423.659 188.849 432.294 188.849C436.608 188.841 440.878 187.983 444.86 186.323C448.842 184.664 452.458 182.236 455.502 179.179Z" fill="#FF9800"/>
<path d="M515.417 207.545C514.31 206.512 513.425 205.265 512.816 203.88C512.206 202.495 511.885 201 511.871 199.486V111.77C511.945 108.614 513.251 105.611 515.51 103.405C517.769 101.199 520.801 99.9639 523.959 99.9648C525.465 99.9511 526.958 100.248 528.345 100.837C529.731 101.427 530.981 102.296 532.017 103.39C534.142 105.659 535.311 108.661 535.281 111.77C545.403 104.175 557.72 100.074 570.375 100.086H570.818C572.405 99.9514 574.002 100.158 575.503 100.692C577.003 101.227 578.372 102.075 579.517 103.182C580.662 104.289 581.556 105.628 582.141 107.109C582.726 108.591 582.987 110.18 582.906 111.77C582.885 113.331 582.555 114.872 581.935 116.305C581.314 117.737 580.416 119.032 579.292 120.115C578.168 121.198 576.84 122.047 575.386 122.613C573.931 123.18 572.379 123.452 570.818 123.415H570.375C565.769 123.404 561.208 124.314 556.959 126.092C552.711 127.871 548.861 130.481 545.636 133.77C542.325 137.07 539.704 140.996 537.926 145.32C536.148 149.643 535.249 154.278 535.281 158.952V199.245C535.319 200.774 535.049 202.296 534.488 203.72C533.928 205.143 533.087 206.44 532.017 207.533C530.946 208.627 529.667 209.494 528.255 210.084C526.843 210.674 525.328 210.975 523.798 210.97C522.24 211.011 520.69 210.728 519.247 210.138C517.804 209.549 516.5 208.665 515.417 207.545V207.545Z" fill="#FF9800"/>
<path d="M600.836 207.545C599.741 206.506 598.866 205.257 598.264 203.872C597.661 202.488 597.344 200.996 597.331 199.486V111.77C597.336 110.215 597.648 108.675 598.248 107.24C598.848 105.805 599.725 104.502 600.829 103.406C601.933 102.31 603.242 101.441 604.681 100.851C606.12 100.261 607.662 99.9594 609.217 99.9647C610.725 99.9412 612.221 100.234 613.609 100.824C614.997 101.414 616.246 102.288 617.276 103.39C618.352 104.5 619.198 105.812 619.765 107.25C620.332 108.688 620.609 110.225 620.58 111.77C630.691 104.183 642.992 100.083 655.634 100.086H656.117C657.704 99.9513 659.301 100.158 660.801 100.692C662.302 101.226 663.67 102.075 664.815 103.182C665.96 104.289 666.855 105.628 667.44 107.109C668.024 108.591 668.285 110.18 668.205 111.77C668.184 113.331 667.854 114.872 667.234 116.304C666.613 117.737 665.715 119.032 664.591 120.115C663.467 121.198 662.139 122.047 660.685 122.613C659.23 123.18 657.678 123.452 656.117 123.415H655.634C651.034 123.407 646.48 124.319 642.238 126.097C637.996 127.875 634.153 130.484 630.935 133.77C627.624 137.07 625.003 140.996 623.225 145.32C621.447 149.643 620.548 154.278 620.58 158.952V199.244C620.55 201.538 619.844 203.772 618.55 205.666C617.256 207.559 615.432 209.029 613.306 209.89C611.18 210.75 608.847 210.964 606.6 210.504C604.353 210.044 602.292 208.93 600.675 207.303L600.836 207.545Z" fill="#FF9800"/>
<path d="M701.083 251.342C699.167 250.597 697.532 249.273 696.405 247.554C695.278 245.835 694.716 243.807 694.797 241.753C694.802 239.67 695.284 237.616 696.207 235.749L712.324 199.728L674.53 116.847C673.84 115.3 673.483 113.625 673.482 111.932C673.487 110.56 673.719 109.199 674.167 107.902C675.296 104.972 677.543 102.61 680.413 101.335C681.843 100.633 683.413 100.261 685.006 100.247C686.502 100.229 687.986 100.513 689.371 101.08C690.755 101.648 692.011 102.488 693.064 103.551C694.182 104.734 695.095 106.096 695.764 107.58L724.452 172.652L753.664 107.58C754.289 106.155 755.192 104.869 756.32 103.797C757.447 102.725 758.777 101.888 760.231 101.335C761.594 100.711 763.086 100.421 764.583 100.489C767.766 100.598 770.778 101.959 772.964 104.276C774.052 105.369 774.906 106.673 775.474 108.106C776.042 109.54 776.312 111.075 776.268 112.617C776.123 114.204 775.715 115.757 775.059 117.21L716.555 245.298C715.928 246.729 715.021 248.02 713.885 249.093C712.75 250.166 711.411 250.999 709.947 251.544C708.535 252.148 707.009 252.436 705.474 252.39C703.954 252.342 702.46 251.986 701.083 251.342Z" fill="#FF9800"/>
<path d="M800.846 199.406V123.737H792.345C790.831 123.75 789.331 123.445 787.943 122.841C786.554 122.237 785.309 121.348 784.286 120.232C782.067 118.016 780.796 115.026 780.741 111.891C780.729 110.352 781.027 108.827 781.617 107.406C782.207 105.984 783.077 104.696 784.174 103.617C785.271 102.539 786.575 101.692 788.006 101.126C789.437 100.561 790.967 100.289 792.506 100.327H801.007V71.8407C801.183 68.8551 802.492 66.0493 804.668 63.9975C806.844 61.9456 809.722 60.8027 812.712 60.8027C815.703 60.8027 818.581 61.9456 820.757 63.9975C822.932 66.0493 824.242 68.8551 824.417 71.8407V100.327H834.53C836.058 100.3 837.576 100.58 838.994 101.151C840.411 101.722 841.7 102.572 842.782 103.651C843.864 104.73 844.719 106.015 845.295 107.431C845.871 108.846 846.156 110.363 846.135 111.891C846.167 113.449 845.886 114.997 845.307 116.444C844.728 117.89 843.864 119.206 842.766 120.311C841.668 121.417 840.359 122.29 838.916 122.878C837.474 123.467 835.927 123.759 834.369 123.737H824.256V199.406C824.081 202.391 822.771 205.197 820.595 207.249C818.42 209.301 815.542 210.444 812.551 210.444C809.56 210.444 806.683 209.301 804.507 207.249C802.331 205.197 801.022 202.391 800.846 199.406V199.406Z" fill="#FF9800"/>
</g>
<defs>
<clipPath id="clip0_613_11">
<rect width="846.135" height="320" fill="white"/>
</clipPath>
</defs>
</svg>
