<svg width="222" height="64" viewBox="0 0 222 64" fill="none" xmlns="http://www.w3.org/2000/svg">
<path d="M24.1847 5.41538C11.6924 5.41538 1.72314 14.4 1.72314 28.7385C1.72314 41.6 10.2155 49.8461 23.9385 49.8461C29.8462 49.8461 34.9539 48.4308 38.5847 45.9692L39.5693 34.0923H36.7385C34.4616 43.2615 30.5231 46.8923 25.0462 46.8923C17.1078 46.8923 12.8001 38.3385 12.8001 27.0154C12.8001 16.5538 16.3693 8.24615 24.4924 8.24615C30.3385 8.24615 33.8462 12.1231 35.3231 19.3231H37.9693L37.8462 9.04615C34.3385 6.70768 29.7231 5.41538 24.1847 5.41538ZM59.9794 47.4461C55.4871 47.4461 53.7025 40.6769 53.7025 31.0769C53.7025 23.1385 55.364 18.1538 59.4871 18.1538C63.9794 18.1538 65.764 24.9231 65.764 34.5231C65.764 42.4615 64.1025 47.4461 59.9794 47.4461ZM59.6717 49.8461C69.2717 49.8461 76.2871 42.5231 76.2871 32.1231C76.2871 22.2154 69.5794 15.7538 59.7948 15.7538C50.1948 15.7538 43.2409 23.0769 43.2409 33.4769C43.2409 43.3846 49.8871 49.8461 59.6717 49.8461ZM111.608 23.2615L111.977 15.8154H110.254L98.1923 18.3385V20.4308L99.1154 20.6154C101.331 21.1077 101.762 22.2154 101.762 24.1231V42.2769C99.9154 43.2615 98.3769 44.0615 96.2231 44.0615C93.0231 44.0615 91.7308 42.0308 91.7308 38.5846V23.3846L92.0385 15.8154H90.3769L78.2539 18.3385V20.4308L79.1769 20.6154C81.3923 21.1077 81.8231 22.2154 81.8231 24.1231V39.6923C81.8231 46.7077 85.4539 49.8461 90.9308 49.8461C96.1 49.8461 99.3615 46.7692 101.762 43.9385L101.577 49.8461H103.362L115.423 47.6923V45.5385L113.946 45.4769C111.792 45.3538 111.608 44.5538 111.608 42.4615V23.2615ZM131.118 27.1385C134.072 24.4923 137.272 24.3077 141.149 24.3077H142.441V16.8C141.888 16.1846 140.903 15.7538 139.549 15.7538C135.795 15.7538 133.826 18.0923 131.118 25.0461L131.364 15.7538H129.518L117.641 19.2V20.6154L121.211 22.7692V44.4923C121.211 46.5231 120.226 46.8308 117.58 47.0154V49.2308H136.164V47.0154C132.472 46.6461 131.118 46.3385 131.118 43.7538V27.1385ZM156.994 8.18461H154.901C152.009 12.3077 147.948 15.8154 143.394 17.7231V19.4461H147.086V40.0615C147.086 47.1385 150.901 49.8461 156.194 49.8461C160.871 49.8461 164.132 47.6308 166.286 44.1846L165.425 42.9538C163.948 44.0615 162.532 44.6154 160.932 44.6154C158.286 44.6154 156.994 43.2 156.994 39.8154V19.4461H164.625V16.3692H156.994V8.18461ZM180.932 1.04614H179.332L167.517 3.93845V5.47691L171.086 7.32307V44.4923C171.086 46.5231 170.101 46.8308 167.394 47.0154V49.2308H184.625V47.0154C181.917 46.8308 180.932 46.5231 180.932 44.4923V1.04614ZM206.337 39.3846L199.383 22.4C199.137 21.6615 199.014 21.2308 199.014 20.6769C199.014 19.3231 199.937 18.9538 203.137 18.5846V16.3692H184.983V18.5846C187.137 19.2 187.506 19.6308 188.122 20.9846L201.722 50.5846L200.737 52.9846C199.506 56 197.599 56.9231 194.214 56.9231C192.368 56.9231 191.137 56.6769 189.722 56.3692V60.1231C190.522 61.7846 192.429 62.7692 194.706 62.7692C198.829 62.7692 201.045 60 203.137 54.8308L216.922 20.9846C217.476 19.6308 217.906 19.2 220.06 18.5846V16.3692H209.229V18.5846C212.368 18.9538 213.352 19.3231 213.352 20.6769C213.352 21.2308 213.168 21.6615 212.86 22.4615L206.337 39.3846Z" fill="white"/>
</svg>
