<svg width="547" height="321" viewBox="0 0 547 321" fill="none" xmlns="http://www.w3.org/2000/svg">
<path fill-rule="evenodd" clip-rule="evenodd" d="M5.543 1.48781C2.65972 3.08563 0.0604073 7.10911 0.000339054 10.0656C-0.0400705 12.0587 3.48539 20.4475 35.4559 94.4342C46.0978 119.062 58.3801 147.567 62.7509 157.779C67.1217 167.99 79.416 196.496 90.0721 221.124C100.727 245.752 112.272 272.537 115.727 280.646C126.685 306.367 131.152 316.087 132.918 318.052C135.399 320.813 144.236 320.674 146.806 317.835C148.353 316.125 182.036 239.042 205.77 182.898C208.309 176.892 219.315 151.19 230.226 125.783C242.68 96.7823 250.064 78.2408 250.064 75.9659C250.064 73.5075 249.139 71.4171 247.186 69.4632L244.306 66.5843H195.224H146.142L142.95 69.7767C136.493 76.2335 140.142 85.3748 149.728 86.7585C152.353 87.1386 170.128 87.3002 189.227 87.1189C223.66 86.7924 223.949 86.8077 223.396 89.0062C223.091 90.2261 211.962 116.52 198.666 147.436C185.371 178.354 167.185 220.732 158.252 241.609C149.319 262.487 141.452 280.611 140.771 281.884C139.672 283.938 138.632 282.109 131.603 265.767C107.466 209.651 92.6223 175.211 60.5863 100.987C56.1794 90.7755 46.6515 68.6594 39.4128 51.8403L26.2524 21.2601L153.722 20.714C256.06 20.2761 281.686 19.8862 283.701 18.7361C289.537 15.4073 289.471 5.68603 283.589 2.09941C280.178 0.0199592 277.012 -0.0280953 144.126 0.00576133C33.3535 0.0341572 7.66942 0.308287 5.543 1.48781ZM272.727 67.7639C267.372 70.883 267.539 66.8213 267.539 194.228V313.243L270.366 316.603C272.617 319.278 274.047 319.963 277.376 319.963C283.078 319.963 284.823 319.131 286.692 315.516C288.066 312.86 288.29 295.642 288.29 192.698V72.969L285.097 69.7767C281.727 66.4063 276.514 65.5577 272.727 67.7639ZM345.327 102.584C335.7 108.579 339.489 122.284 350.774 122.284C354.075 122.284 355.823 121.54 358.271 119.092C362.559 114.804 362.631 109.401 358.46 104.824C354.501 100.479 349.954 99.7027 345.327 102.584ZM531.397 102.109C526.854 104.479 525.361 106.917 525.321 112.033C525.262 119.599 531.427 124.066 539.162 122.062C548.728 119.583 548.448 105.148 538.762 101.467C535.281 100.143 535.145 100.154 531.397 102.109ZM107.39 108.272C104.862 109.496 102.624 113.506 102.624 116.813C102.624 117.954 103.809 120.265 105.258 121.95L107.893 125.014L136.112 125.357C166.769 125.731 170.476 125.422 173.675 122.223C176.954 118.944 176.557 112.118 172.92 109.258C170.162 107.087 168.8 106.997 139.883 107.068C121.501 107.113 108.812 107.583 107.39 108.272ZM391.586 131.036C385.317 133.485 379.71 138.518 376.392 144.673C374.214 148.718 374.039 150.618 374.031 170.339L374.024 191.636H382.761H391.498L392.044 172.523C392.399 160.114 393.072 152.568 393.964 151.009C397.554 144.732 406.962 143.127 412.461 147.852L415.525 150.486L416.071 171.061L416.617 191.636L425.628 191.829L434.638 192.022V170.77C434.638 146.891 434.061 144.277 427.257 137.295C419.4 129.231 403.399 126.424 391.586 131.036ZM466.856 130.773C459.545 133.185 450.967 141.682 448.482 148.973C445.967 156.355 446.116 167.736 448.825 174.975C455.491 192.79 477.236 198.987 489.622 186.601C491.959 184.265 493.997 182.352 494.152 182.352C494.307 182.352 494.373 184.44 494.298 186.994L494.16 191.636L503.17 191.794L512.18 191.952V173.699C512.18 150.552 510.993 145.906 503.052 137.965C498.863 133.775 495.929 131.903 491.504 130.593C484.01 128.374 473.904 128.448 466.856 130.773ZM341.805 160.941V191.952L350.815 191.794L359.826 191.636L360.116 160.782L360.405 129.929H351.106H341.805V160.941ZM526.634 160.782L526.925 191.636L533.305 192.001C536.814 192.203 540.868 192.071 542.315 191.708L544.945 191.048V160.489V129.929H535.644H526.345L526.634 160.782ZM488.71 148.834C495.668 155.792 494.559 169.896 486.662 174.86C482.382 177.551 473.975 177.128 470.517 174.048C463.27 167.59 463.653 153.556 471.24 147.587C473.409 145.88 475.764 145.219 479.673 145.219C484.355 145.219 485.589 145.713 488.71 148.834Z" fill="white"/>
</svg>
