<svg width="101" height="22" viewBox="0 0 101 22" fill="none" xmlns="http://www.w3.org/2000/svg">
<path d="M4.54896 11.9031C4.54896 10.1126 5.6115 9.0516 7.43772 9.0516C9.33036 9.0516 10.0608 10.2784 10.0608 11.9031V21.1205H14.5766V11.9031C14.5766 10.1126 15.6391 9.0516 17.4654 9.0516C19.358 9.0516 20.1217 10.2784 20.1217 11.9031V21.1205H24.6375V10.61C24.6375 7.22801 23.1765 4.97339 19.7564 4.97339C17.0669 4.97339 15.3071 6.23332 14.6098 9.91366H14.5434C14.3774 6.9296 12.9164 4.97339 9.72881 4.97339C7.20529 4.97339 5.31266 6.20017 4.58217 9.81419H4.54896V5.40442H0V21.1205H4.54896V11.9031Z" fill="white"/>
<path d="M30.8301 3.74668V0.795776H26.1152V3.74668H30.8301ZM30.7637 21.1205V5.40449H26.2148V21.1205H30.7637Z" fill="white"/>
<path d="M39.0568 21.5847C43.7718 21.5847 45.8304 19.6616 45.8304 16.5781C45.8304 14.224 44.5355 12.533 40.0197 11.6378C36.9317 11.0742 36.5333 10.4774 36.5333 9.61525C36.5333 8.75319 37.2638 8.22269 38.5919 8.22269C40.1525 8.22269 40.9162 9.01844 41.2814 10.7094L45.598 9.74788C45.0003 6.83013 43.1409 4.97339 38.6251 4.97339C34.209 4.97339 32.0507 6.83013 32.0507 9.81419C32.0507 12.4004 33.5449 13.8924 37.961 14.8208C40.7834 15.3845 41.3811 15.8818 41.3811 16.7439C41.3479 17.7054 40.6174 18.2359 39.1564 18.2359C37.2305 18.2359 36.3008 17.2081 35.8692 15.4508L31.6523 16.2797C32.1171 19.1643 33.7441 21.5847 39.0568 21.5847Z" fill="white"/>
<path d="M52.3766 5.13921C52.3766 3.84612 53.0075 3.28246 54.2028 3.28246C54.7009 3.28246 55.1989 3.31562 55.7302 3.41509L56.0622 0.232092C55.4314 0.0994693 54.7341 0 53.5387 0C49.6538 0 47.8608 2.15515 47.8608 5.17236V5.40446H45.7358V9.18426H47.8608V21.1205H52.3766V9.18426H55.7302V5.40446H52.3766V5.13921Z" fill="white"/>
<path d="M62.3206 17.805C60.5939 17.805 59.9963 17.0424 59.9963 16.0808C59.9963 15.2188 60.7932 14.622 62.1213 14.622H65.5082V15.0862C65.5082 16.6777 64.2464 17.805 62.3206 17.805ZM65.5082 21.1206H70.0239V11.3727C70.0239 7.36072 68.0317 5.03979 63.2503 5.03979C58.3693 5.03979 56.4434 7.39388 56.045 10.6764L60.2951 11.2732C60.5939 9.44956 61.5569 8.78645 63.0511 8.78645C64.7777 8.78645 65.5082 9.71481 65.5082 11.4058V12.069H61.4241C57.2735 12.069 55.5801 14.0252 55.5801 16.8766C55.5801 19.9601 57.6388 21.4522 60.3615 21.4522C63.0178 21.4522 64.7445 19.9601 65.4418 17.2745H65.5082V21.1206Z" fill="white"/>
<path d="M76.0723 11.9031C76.0723 10.1126 77.1349 9.0516 78.9611 9.0516C80.8537 9.0516 81.5842 10.2784 81.5842 11.9031V21.1205H86.1V10.61C86.1 7.22801 84.6722 4.97339 81.2522 4.97339C78.7287 4.97339 76.836 6.20017 76.1055 9.81419H76.0723V5.40442H71.5234V21.1205H76.0723V11.9031Z" fill="white"/>
<path d="M94.2264 21.5847C98.9413 21.5847 101 19.6616 101 16.5781C101 14.224 99.705 12.533 95.1893 11.6378C92.1013 11.0742 91.7029 10.4774 91.7029 9.61525C91.7029 8.75319 92.4333 8.22269 93.7615 8.22269C95.3221 8.22269 96.0858 9.01844 96.451 10.7094L100.768 9.74788C100.17 6.83013 98.3105 4.97339 93.7947 4.97339C89.3786 4.97339 87.2203 6.83013 87.2203 9.81419C87.2203 12.4004 88.7145 13.8924 93.1306 14.8208C95.953 15.3845 96.5506 15.8818 96.5506 16.7439C96.5174 17.7054 95.7869 18.2359 94.326 18.2359C92.4001 18.2359 91.4704 17.2081 91.0388 15.4508L86.8218 16.2797C87.2867 19.1643 88.9137 21.5847 94.2264 21.5847Z" fill="white"/>
</svg>
