<svg width="1694" height="320" viewBox="0 0 1694 320" fill="none" xmlns="http://www.w3.org/2000/svg">
<g clip-path="url(#clip0_747_5)">
<path d="M161.72 8.59546C69.0534 8.59546 3.42676 74.6621 3.42676 164.315C3.42676 253.969 69.0668 320.022 161.733 320.022C254.4 320.022 320 253.969 320 164.315C320 74.6621 254.373 8.59546 161.72 8.59546ZM161.72 77.2355C210.613 77.2355 245.36 112.835 245.36 164.302C245.36 215.782 210.613 251.382 161.72 251.382C112.813 251.382 78.0667 215.782 78.0667 164.315C78.0667 112.849 112.813 77.2355 161.72 77.2355ZM545.693 106.715C545.693 106.008 545.412 105.33 544.912 104.83C544.412 104.33 543.734 104.049 543.027 104.049H481.44C481.09 104.049 480.743 104.118 480.42 104.252C480.096 104.386 479.802 104.582 479.554 104.83C479.307 105.077 479.11 105.371 478.976 105.695C478.842 106.018 478.773 106.365 478.773 106.715V218.355C478.773 245.169 464.187 257.395 444.24 257.395C424.08 257.395 409.707 245.169 409.707 218.355V106.715C409.707 106.008 409.426 105.33 408.926 104.83C408.426 104.33 407.747 104.049 407.04 104.049H345.253C344.546 104.049 343.868 104.33 343.368 104.83C342.868 105.33 342.587 106.008 342.587 106.715V224.155C342.587 290.209 388.053 320.022 444.24 320.022C500.227 320.022 545.693 290.209 545.693 224.369V106.715ZM768.827 106.715C768.827 106.008 768.546 105.33 768.046 104.83C767.546 104.33 766.867 104.049 766.16 104.049H673.04C672.333 104.049 671.654 103.768 671.154 103.268C670.654 102.768 670.373 102.089 670.373 101.382V45.3821C670.373 44.6749 670.092 43.9966 669.592 43.4965C669.092 42.9964 668.414 42.7155 667.707 42.7155H605.907C605.199 42.7155 604.521 42.9964 604.021 43.4965C603.521 43.9966 603.24 44.6749 603.24 45.3821V101.382C603.24 102.089 602.959 102.768 602.459 103.268C601.959 103.768 601.281 104.049 600.573 104.049H566.667C565.959 104.049 565.281 104.33 564.781 104.83C564.281 105.33 564 106.008 564 106.715V160.782C564 162.249 565.2 163.449 566.667 163.449H600.573C602.04 163.449 603.24 164.649 603.24 166.115V233.582C603.24 286.342 628.76 320.022 685.173 320.022C703.333 320.022 728 312.715 734.827 310.569C735.36 310.403 735.826 310.069 736.155 309.618C736.484 309.166 736.659 308.621 736.653 308.062V258.342C736.653 252.142 729.893 248.315 724.293 250.942C716.533 254.595 708.133 257.395 700.187 257.395C683.253 257.395 670.373 249.249 670.373 225.009V166.115C670.373 164.649 671.573 163.449 673.04 163.449H766.16C766.867 163.449 767.546 163.168 768.046 162.668C768.546 162.168 768.827 161.489 768.827 160.782V106.715Z" fill="white"/>
<path d="M890.73 106.696C890.73 105.989 890.449 105.311 889.949 104.811C889.449 104.311 888.771 104.03 888.064 104.03H834.397C833.69 104.03 833.011 103.749 832.511 103.249C832.011 102.748 831.73 102.07 831.73 101.363V89.2296C831.73 70.9896 839.024 62.6296 853.824 62.6296C865.744 62.6296 875.077 66.1229 884.397 70.7229C885.664 71.3496 887.197 70.9096 887.917 69.6829L914.597 24.3496C914.928 23.7888 915.039 23.1249 914.909 22.4868C914.778 21.8487 914.415 21.2818 913.89 20.8963C897.637 9.13626 876.397 0.00292969 844.837 0.00292969C795.717 0.00292969 764.61 31.0963 764.61 87.7363V311.763C764.61 313.23 765.81 314.43 767.277 314.43H829.077C829.784 314.43 830.463 314.149 830.963 313.649C831.463 313.148 831.744 312.47 831.744 311.763V166.096C831.744 164.63 832.944 163.43 834.41 163.43H888.064C888.771 163.43 889.449 163.149 889.949 162.649C890.449 162.148 890.73 161.47 890.73 160.763V106.696ZM1113.05 106.696C1113.05 106.346 1112.98 105.999 1112.85 105.676C1112.71 105.352 1112.52 105.058 1112.27 104.811C1112.02 104.563 1111.73 104.367 1111.4 104.233C1111.08 104.099 1110.73 104.03 1110.38 104.03H1048.8C1048.09 104.03 1047.41 104.311 1046.91 104.811C1046.41 105.311 1046.13 105.989 1046.13 106.696V218.336C1046.13 245.15 1031.54 257.376 1011.6 257.376C991.437 257.376 977.064 245.15 977.064 218.336V106.696C977.064 105.989 976.783 105.311 976.283 104.811C975.782 104.311 975.104 104.03 974.397 104.03H912.597C911.89 104.03 911.212 104.311 910.711 104.811C910.211 105.311 909.93 105.989 909.93 106.696V224.136C909.93 290.19 955.397 320.003 1011.6 320.003C1067.58 320.003 1113.05 290.19 1113.05 224.35V106.696ZM1268.13 98.2296C1243.62 98.2296 1224.34 105.91 1210.98 122.523C1209.29 124.63 1205.52 123.51 1205.52 120.803V106.696C1205.52 105.989 1205.24 105.311 1204.74 104.811C1204.24 104.311 1203.56 104.03 1202.85 104.03H1143.82C1143.12 104.03 1142.44 104.311 1141.94 104.811C1141.44 105.311 1141.16 105.989 1141.16 106.696V311.763C1141.16 313.23 1142.36 314.43 1143.82 314.43H1205.62C1206.33 314.43 1207.01 314.149 1207.51 313.649C1208.01 313.148 1208.29 312.47 1208.29 311.763V201.176C1208.29 173.95 1223.74 161.296 1242.4 161.296C1263.2 161.296 1275.64 175.23 1275.64 200.11V311.763C1275.64 313.23 1276.84 314.43 1278.3 314.43H1340.1C1340.81 314.43 1341.49 314.149 1341.99 313.649C1342.49 313.148 1342.77 312.47 1342.77 311.763V176.296C1342.77 127.616 1310.17 98.2296 1268.13 98.2296ZM1461.62 98.2296C1405.21 98.2296 1363.61 147.136 1363.61 208.896C1363.61 271.096 1405.21 320.003 1461.41 320.003C1486.34 320.003 1504.24 310.99 1516.8 297.683C1518.54 295.816 1521.89 297.016 1521.89 299.55V311.763C1521.89 313.23 1523.09 314.43 1524.56 314.43H1584C1584.7 314.43 1585.38 314.149 1585.88 313.649C1586.38 313.148 1586.66 312.47 1586.66 311.763V8.24293C1586.66 7.53568 1586.38 6.85741 1585.88 6.35731C1585.38 5.85721 1584.7 5.57626 1584 5.57626H1522.41C1521.7 5.57626 1521.02 5.85721 1520.52 6.35731C1520.02 6.85741 1519.74 7.53568 1519.74 8.24293V116.803C1519.74 119.296 1516.54 120.496 1514.76 118.75C1502.34 106.47 1485.12 98.2296 1461.62 98.2296ZM1477.49 160.856C1503.88 160.856 1522.53 181.23 1522.53 209.123C1522.53 236.99 1503.88 257.376 1477.49 257.376C1450.69 257.376 1432.66 236.576 1432.66 209.11C1432.66 181.67 1450.69 160.856 1477.49 160.856Z" fill="white"/>
<path d="M1693.33 279.994C1693.33 257.903 1675.42 239.994 1653.33 239.994C1631.24 239.994 1613.33 257.903 1613.33 279.994C1613.33 302.086 1631.24 319.994 1653.33 319.994C1675.42 319.994 1693.33 302.086 1693.33 279.994Z" fill="#00A3D7"/>
</g>
<defs>
<clipPath id="clip0_747_5">
<rect width="1693.33" height="320" fill="white"/>
</clipPath>
</defs>
</svg>
