<svg width="151" height="27" viewBox="0 0 151 27" fill="none" xmlns="http://www.w3.org/2000/svg">
<path fill-rule="evenodd" clip-rule="evenodd" d="M22.373 2.52858C15.0313 4.09305 10.3881 5.14609 10.1093 5.3099C9.8626 5.45481 9.51724 5.7875 9.3419 6.04928C9.03551 6.50659 9.02443 6.62444 9.06101 9.05108L9.09914 11.577L18.4472 14.8446C23.5886 16.6418 27.8285 18.1458 27.8692 18.1867C27.91 18.2276 22.3492 19.0696 15.5121 20.058C8.67487 21.0461 3.06546 21.8703 3.04667 21.8891C3.02789 21.9082 3.00196 22.751 2.98921 23.7622C2.96987 25.2982 3.00617 25.6623 3.20982 25.9748C3.7594 26.8187 3.20618 26.8782 18.5539 24.3228C33.6664 21.8065 33.2726 21.8937 33.8516 20.9386C34.088 20.5485 34.117 20.2003 34.1174 17.7432L34.118 14.9855L25.9536 12.1204C21.4631 10.5446 17.2532 9.06207 16.5982 8.82581L15.4073 8.39614L24.7977 6.80657C29.9624 5.93214 34.6184 5.1444 35.1443 5.05587L36.1005 4.89488L36.0553 2.85337L36.0102 0.811854L35.5524 0.400788C35.2368 0.11744 34.9539 -0.00689524 34.6414 0.000294184C34.392 0.00607392 28.8713 1.14384 22.373 2.52858ZM88.1738 4.73587C88.1223 4.78747 88.0803 5.95483 88.0803 7.32985V9.82979L87.6247 9.39913C86.863 8.67878 86.0558 8.39022 84.7835 8.38345C83.791 8.37823 83.5505 8.43138 82.7313 8.83709C81.651 9.37178 80.9099 10.1361 80.3903 11.2505C80.0682 11.9412 80.021 12.2236 80.021 13.4554C80.021 14.7651 80.0542 14.936 80.4779 15.8014C81.0108 16.8901 81.7726 17.6364 82.8775 18.1519C83.5211 18.4522 83.8704 18.519 84.7865 18.5174C86.0747 18.5152 86.8809 18.2179 87.6247 17.471L88.0803 17.0137V17.6647V18.3159H89.1315H90.1827V11.4788V4.64185H89.225C88.6981 4.64185 88.2251 4.68414 88.1738 4.73587ZM102.237 11.4726V18.3159H103.288H104.339L104.341 15.1793C104.344 12.196 104.359 12.0152 104.657 11.4788C105.015 10.835 105.951 10.2806 106.679 10.2806C107.44 10.2806 108.227 10.6811 108.576 11.2464C108.879 11.736 108.897 11.9185 108.941 15.0383L108.987 18.3159H109.965H110.943L110.9 14.5334L110.857 10.751L110.433 10.062C109.87 9.14623 109.102 8.6238 108.024 8.42222C106.87 8.20639 105.822 8.43533 104.97 9.08985L104.346 9.56886L104.307 7.14052L104.269 4.71233L103.253 4.67089L102.237 4.62944V11.4726ZM32.8228 7.5272C27.9091 8.23896 23.8608 8.84949 23.8266 8.88389C23.7924 8.91829 25.006 9.3794 26.5235 9.90845C28.0409 10.4377 31.6384 11.6934 34.5179 12.6992C37.3974 13.7049 39.7821 14.4987 39.8174 14.4633C39.8526 14.4278 39.4362 13.5047 38.8919 12.4121C38.3477 11.3194 37.9024 10.3666 37.9024 10.2947C37.9024 10.2228 38.9115 9.29862 40.145 8.24093C41.3784 7.18324 42.3875 6.28963 42.3875 6.2551C42.3875 6.14683 41.9596 6.20364 32.8228 7.5272ZM53.0665 8.50652C51.1593 9.13383 50.2987 10.8474 51.0779 12.4663C51.4828 13.3074 52.0593 13.6744 53.8273 14.2165C55.741 14.8032 56.1977 15.1932 55.8962 15.9835C55.669 16.579 54.1993 16.8207 53.2449 16.4197C52.9695 16.3039 52.6339 16.0033 52.4719 15.7271L52.1856 15.2391L51.2938 15.7519C50.423 16.2528 50.4065 16.2731 50.5867 16.6237C51.566 18.5283 54.8981 19.1935 56.8721 17.8784C57.6429 17.365 58.0857 16.5294 58.0857 15.5884C58.0857 14.0308 57.3811 13.3346 55.0713 12.6093C52.896 11.9263 52.4456 11.4294 53.2599 10.6103C53.5838 10.2846 53.7036 10.2543 54.4528 10.3087C55.1641 10.3605 55.3556 10.4375 55.7654 10.8372L56.2453 11.3049L56.9827 10.8859C57.3884 10.6554 57.7432 10.3976 57.7713 10.313C57.8583 10.0504 56.8486 9.05446 56.1701 8.73376C55.3466 8.3444 53.8847 8.23741 53.0665 8.50652ZM62.3443 8.50609C60.8711 8.86571 59.761 9.80273 59.081 11.2609C58.7645 11.9397 58.7164 12.2285 58.7164 13.4524C58.7164 14.7024 58.761 14.958 59.1098 15.7079C59.6085 16.7797 60.6513 17.7833 61.6613 18.1633C63.2656 18.7671 65.1518 18.6735 66.5401 17.9216C67.1808 17.5745 68.0371 16.7566 68.0371 16.4919C68.0371 16.4243 67.6884 16.1713 67.2623 15.9294L66.4875 15.4896L65.9573 15.9181C65.6656 16.1538 65.2105 16.4091 64.9459 16.4855C63.2409 16.9772 61.2987 16.1331 60.9537 14.75L60.8596 14.3734L64.6937 14.3357L68.5277 14.2982L68.518 13.3114C68.485 9.90126 65.6544 7.6982 62.3443 8.50609ZM73.8017 8.50933C73.4648 8.61985 72.9443 8.90799 72.6454 9.14976L72.1018 9.58902V9.089V8.58898H71.0506H69.9994V13.4524V18.3159H71.0506H72.1018L72.1041 15.1793C72.1063 12.196 72.1217 12.0152 72.4201 11.4788C72.7781 10.835 73.7134 10.2806 74.4414 10.2806C75.2026 10.2806 75.9895 10.6811 76.3391 11.2464C76.6418 11.736 76.6593 11.9185 76.7035 15.0383L76.7497 18.3159H77.7196H78.6894L78.6886 14.8269C78.6882 12.8585 78.6247 11.1091 78.5428 10.8128C78.3322 10.0494 77.5894 9.14637 76.8634 8.77069C76.0551 8.3523 74.6467 8.23205 73.8017 8.50933ZM95.3687 8.52992C94.3748 8.79339 93.19 9.63201 92.6048 10.486C91.3637 12.2973 91.4481 14.9738 92.8005 16.6939C93.6437 17.7664 95.3772 18.5978 96.7703 18.5978C98.2218 18.5978 100.088 17.6788 100.784 16.6211C100.989 16.3096 101.131 16.0346 101.101 16.01C101.07 15.9855 100.683 15.7601 100.239 15.5093L99.4338 15.0531L98.9624 15.5558C97.1292 17.5106 93.8423 16.1833 93.83 13.4831C93.8221 11.7781 95.1333 10.4324 96.8098 10.4247C97.6791 10.4206 98.3712 10.7202 98.9425 11.3473L99.4017 11.8516L100.188 11.4051C100.621 11.1596 101.005 10.9107 101.04 10.8522C101.165 10.6502 100.267 9.60029 99.6045 9.17288C98.8532 8.68794 97.5487 8.30253 96.7058 8.31635C96.3944 8.32142 95.7927 8.41756 95.3687 8.52992ZM115.822 8.49101C114.37 8.90461 113.282 9.84643 112.623 11.2609C112.306 11.9401 112.258 12.2282 112.258 13.4554C112.258 14.7651 112.291 14.936 112.715 15.8014C113.248 16.8901 114.01 17.6364 115.115 18.1519C115.758 18.4522 116.108 18.519 117.024 18.5174C118.312 18.5152 119.118 18.2179 119.862 17.471L120.317 17.0137V17.6647V18.3159H121.369H122.42V13.4524V8.58898H121.369H120.317V9.20939V9.82979L119.862 9.39913C118.915 8.50355 117.162 8.10955 115.822 8.49101ZM128.042 8.51018C127.705 8.62084 127.216 8.91829 126.956 9.17118L126.485 9.63103V9.11V8.58898H125.433H124.382V13.4524V18.3159H125.433H126.485V15.1301C126.485 12.4828 126.523 11.8628 126.712 11.4621C127.328 10.1557 129.225 9.90845 130.021 11.0308C130.327 11.4621 130.341 11.6066 130.383 14.8974L130.427 18.3159H131.469H132.512L132.515 15.1793C132.517 12.4063 132.548 11.9746 132.783 11.4546C133.104 10.744 133.578 10.4068 134.371 10.3259C135.148 10.2465 135.869 10.6192 136.19 11.2674C136.403 11.6947 136.436 12.2003 136.436 15.0383L136.436 18.3159H137.496H138.555L138.512 14.6154L138.468 10.915L138.04 10.1547C137.482 9.16597 136.734 8.62761 135.632 8.42137C134.389 8.18905 133.436 8.42616 132.585 9.17922L131.935 9.75437L131.496 9.30243C131.255 9.0539 130.869 8.75307 130.64 8.63381C130.056 8.32988 128.779 8.26912 128.042 8.51018ZM144.666 8.45224C143.927 8.63945 143.406 8.93069 142.898 9.44156L142.463 9.87941V9.2342V8.58898H141.412H140.361V15.4322V22.2754L141.377 22.234L142.393 22.1925L142.431 19.6049L142.469 17.0174L142.75 17.376C142.904 17.5732 143.392 17.9127 143.833 18.1303C144.952 18.6822 146.51 18.6911 147.666 18.1519C148.771 17.6364 149.532 16.8901 150.065 15.8014C150.489 14.936 150.522 14.7651 150.522 13.4554C150.522 12.2215 150.476 11.9446 150.154 11.2674C149.621 10.1444 148.887 9.36953 147.888 8.87487C146.922 8.39642 145.581 8.22063 144.666 8.45224ZM64.7693 10.4306C65.481 10.701 66.1475 11.4814 66.417 12.3599L66.5143 12.6771H63.684H60.8539L60.9426 12.2308C61.0712 11.5839 61.6805 10.8535 62.3443 10.5503C62.9854 10.2575 64.161 10.1994 64.7693 10.4306ZM86.6467 10.7984C86.9761 10.9874 87.4176 11.4034 87.6278 11.723C87.9656 12.2363 88.0102 12.438 88.0102 13.4524C88.0102 14.4668 87.9656 14.6686 87.6278 15.1818C86.4416 16.9845 83.6928 16.9858 82.5073 15.1842C81.9549 14.3446 81.8914 12.8716 82.3688 11.9722C83.1848 10.4351 85.0986 9.90986 86.6467 10.7984ZM118.884 10.7984C119.213 10.9874 119.655 11.4034 119.865 11.723C120.203 12.2363 120.247 12.438 120.247 13.4524C120.247 14.4668 120.203 14.6686 119.865 15.1818C118.679 16.9845 115.93 16.9858 114.744 15.1842C114.192 14.3446 114.129 12.8716 114.606 11.9722C115.422 10.4351 117.336 9.90986 118.884 10.7984ZM146.917 10.7321C149.051 11.7365 149.016 15.1604 146.861 16.2095C145.462 16.8907 143.83 16.4841 142.96 15.2377C142.567 14.675 142.533 14.5328 142.533 13.4524C142.533 12.3746 142.568 12.2289 142.956 11.674C143.872 10.3631 145.374 10.0059 146.917 10.7321ZM3.38152 13.7693C3.94763 14.9127 4.39349 15.9183 4.37232 16.0038C4.35102 16.0894 3.41908 16.9366 2.30129 17.8866C1.1835 18.8366 0.15612 19.7224 0.0182004 19.8552C-0.191201 20.057 1.31834 19.8743 9.15604 18.7495C14.3197 18.0084 18.4597 17.3543 18.356 17.2959C18.1787 17.1961 2.47776 11.6903 2.37039 11.6903C2.3603 11.6903 2.81527 12.6258 3.38152 13.7693Z" fill="white"/>
</svg>
