<svg width="155" height="32" viewBox="0 0 155 32" fill="none" xmlns="http://www.w3.org/2000/svg">
<g clip-path="url(#clip0_2270_17834)">
<path d="M8.44645 14.6892H8.05721L7.27873 0.00012207H0V0.385662L2.33543 32H10.8986L12.0664 19.3928H12.4556L13.6233 32H21.408L23.7435 0.385662V0.00012207H17.2043L16.4259 14.6892H16.0365L14.7521 0.00012207H9.73093L8.44645 14.6892Z" fill="white"/>
<path d="M23.4873 16.9639C23.4873 27.8747 27.5744 32 33.6465 32C39.7185 32 43.8056 27.8747 43.8056 16.9639V15.0363C43.8056 4.12543 39.7185 0 33.6465 0C27.5744 0 23.4873 4.12543 23.4873 15.0363V16.9639ZM32.7512 5.7447C32.7512 5.08928 33.0237 4.62663 33.6465 4.62663C34.2693 4.62663 34.5417 5.08928 34.5417 5.7447V26.2555C34.5417 26.9108 34.2693 27.3735 33.6465 27.3735C33.0237 27.3735 32.7512 26.9108 32.7512 26.2555V5.7447Z" fill="white"/>
<path d="M44.7466 32H52.687V19.6241C54.0104 19.6241 54.2828 20.6265 54.3218 22.053L54.3996 26.294C54.4386 28.8 54.711 30.6892 55.2559 32H62.7294V31.6144C62.1066 30.5349 61.9119 29.3397 61.834 26.0241L61.7951 24.2121C61.7172 20.3952 61.0167 18.3904 58.1363 16.8868V16.5013C61.0556 14.882 62.6515 12.5687 62.6515 8.98322V8.28924C62.6515 3.46999 58.7591 0.00012207 52.648 0.00012207H44.7466V32ZM53.193 5.01215C53.9715 5.01215 54.4775 5.51335 54.4775 6.66998V12.9157C54.4775 14.0724 53.9715 14.6121 53.193 14.6121H52.687V5.01215H53.193Z" fill="white"/>
<path d="M71.3801 32L71.0686 20.9736H71.4578L73.8322 32H81.5781V31.6144L77.9581 16.1542V15.7688L81.5781 0.385662V0.00012207H74.0269L71.4578 11.7206H71.0686L71.3801 0.00012207H63.4785V32H71.3801Z" fill="white"/>
<path d="M90.3157 14.6892H89.9263L89.1479 0.00012207H81.8691V0.385662L84.2046 32H92.7678L93.9355 19.3928H94.3247L95.4925 32H103.277L105.613 0.385662V0.00012207H99.0734L98.295 14.6892H97.9057L96.6213 0.00012207H91.6001L90.3157 14.6892Z" fill="white"/>
<path d="M106.378 32H120.391V25.8313H114.552V18.9686H119.535V12.8001H114.552V6.16876H120.391V0.00012207H106.378V32Z" fill="white"/>
<path d="M121.473 32H135.485V25.8313H129.647V18.9686H134.629V12.8001H129.647V6.16876H135.485V0.00012207H121.473V32Z" fill="white"/>
<path d="M144.468 32L144.158 20.9736H144.547L146.922 32H154.667V31.6144L151.047 16.1542V15.7688L154.667 0.385662V0.00012207H147.116L144.547 11.7206H144.158L144.468 0.00012207H136.567V32H144.468Z" fill="white"/>
</g>
<defs>
<clipPath id="clip0_2270_17834">
<rect width="154.667" height="32" fill="white"/>
</clipPath>
</defs>
</svg>
